<svg width="167.6199951171875px" height="168.839990234375px" xmlns="http://www.w3.org/2000/svg" viewBox="166.19000244140625 -9.419995117187497 167.6199951171875 168.839990234375" style="background: none;" preserveAspectRatio="xMidYMid">
  <defs>
    <filter id="editing-extrusion" x="-100%" y="-100%" width="300%" height="300%">
      <feFlood result="color1" flood-color="#444444"></feFlood>
      <feConvolveMatrix order="1,1" divisor="1" kernelMatrix="1" in="SourceAlpha" result="extrude"></feConvolveMatrix>
      <feComposite in="color1" in2="extrude" result="comp-extrude" operator="in"></feComposite>
      <feOffset dx="0.5" dy="0.5" in="comp-extrude" result="offset-extrude"></feOffset>
      <feMerge>
        <feMergeNode in="offset-extrude"></feMergeNode>
        <feMergeNode in="SourceGraphic"></feMergeNode>
      </feMerge>
    </filter>
  </defs>
  <g filter="url(#editing-extrusion)">
    <g transform="translate(204.8061761856079, 112.77499580383301)">
      <path d="M37.17-2.02L37.17-2.02Q34.64-1.62 31.61-1.11L31.61-1.11L31.61-1.11Q28.58-0.61 26.16-0.20L26.16-0.20L26.16-0.20Q26.56-3.54 26.97-6.77L26.97-6.77L26.97-6.77Q27.27-9.60 27.52-12.42L27.52-12.42L27.52-12.42Q27.78-15.25 27.98-17.27L27.98-17.27L19.19-17.27L15.15-2.73L15.15-2.73Q12.93-2.42 9.90-2.07L9.90-2.07L9.90-2.07Q6.87-1.72 4.24-1.41L4.24-1.41L4.24-1.41Q1.01-1.01-2.12-0.61L-2.12-0.61L-2.12-0.61Q1.92-14.04 5.86-27.07L5.86-27.07L5.86-27.07Q7.47-32.52 9.24-38.48L9.24-38.48L9.24-38.48Q11.01-44.44 12.78-50.35L12.78-50.35L12.78-50.35Q14.54-56.26 16.16-61.71L16.16-61.71L16.16-61.71Q17.78-67.17 18.99-71.71L18.99-71.71L18.99-71.71Q25.86-72.22 32.98-72.92L32.98-72.92L32.98-72.92Q40.10-73.63 46.86-74.84L46.86-74.84L46.86-74.84Q46.56-71.61 46.21-66.81L46.21-66.81L46.21-66.81Q45.85-62.01 45.55-56.36L45.55-56.36L45.55-56.36Q45.25-50.70 44.95-44.54L44.95-44.54L44.95-44.54Q44.64-38.38 44.34-32.42L44.34-32.42L44.34-32.42Q43.83-18.48 43.23-2.83L43.23-2.83L43.23-2.83Q40.20-2.32 37.17-2.02L37.17-2.02ZM27.88-52.72L21.61-27.37L21.61-27.37Q22.02-27.37 23.08-27.42L23.08-27.42L23.08-27.42Q24.14-27.47 25.30-27.52L25.30-27.52L25.30-27.52Q26.46-27.57 27.47-27.62L27.47-27.62L27.47-27.62Q28.48-27.67 28.89-27.78L28.89-27.78L28.89-27.78Q28.89-28.38 29.04-29.85L29.04-29.85L29.04-29.85Q29.19-31.31 29.34-33.18L29.34-33.18L29.34-33.18Q29.49-35.05 29.69-37.27L29.69-37.27L29.69-37.27Q29.90-39.49 30.10-41.61L30.10-41.61L30.10-41.61Q30.50-46.76 31.11-52.72L31.11-52.72L31.71-61.51L30.20-61.41L27.88-52.72ZM60.80-2.32L44.44 0.10L44.44 0.10Q47.47-14.04 50.10-27.37L50.10-27.37L50.10-27.37Q51.11-33.13 52.22-39.29L52.22-39.29L52.22-39.29Q53.33-45.45 54.29-51.51L54.29-51.51L54.29-51.51Q55.25-57.57 56.00-63.28L56.00-63.28L56.00-63.28Q56.76-68.98 57.17-73.63L57.17-73.63L57.17-73.63Q59.49-73.43 62.42-73.28L62.42-73.28L62.42-73.28Q65.35-73.12 67.87-72.92L67.87-72.92L67.87-72.92Q70.90-72.72 73.93-72.72L73.93-72.72L73.93-72.72Q73.83-72.32 73.63-71.20L73.63-71.20L73.63-71.20Q73.43-70.09 73.12-68.53L73.12-68.53L73.12-68.53Q72.82-66.96 72.47-65.04L72.47-65.04L72.47-65.04Q72.11-63.13 71.71-61.21L71.71-61.21L71.71-61.21Q70.90-56.76 69.89-51.21L69.89-51.21L70.50-51.31L70.50-51.31Q71.51-52.92 73.38-55.80L73.38-55.80L73.38-55.80Q75.25-58.68 77.27-61.91L77.27-61.91L77.27-61.91Q79.28-65.15 81.20-68.12L81.20-68.12L81.20-68.12Q83.12-71.10 84.44-73.23L84.44-73.23L84.44-73.23Q89.49-73.63 94.54-74.13L94.54-74.13L94.54-74.13Q99.59-74.64 104.64-75.45L104.64-75.45L104.64-75.45Q99.89-69.08 95.45-62.92L95.45-62.92L95.45-62.92Q93.53-60.30 91.56-57.47L91.56-57.47L91.56-57.47Q89.59-54.64 87.67-51.91L87.67-51.91L87.67-51.91Q85.75-49.19 84.08-46.66L84.08-46.66L84.08-46.66Q82.42-44.14 81.10-42.02L81.10-42.02L81.10-42.02Q83.33-31.82 86.36-22.32L86.36-22.32L86.36-22.32Q89.39-12.83 92.52-2.93L92.52-2.93L92.52-2.93Q90.19-3.03 87.77-3.08L87.77-3.08L87.77-3.08Q85.34-3.13 83.02-3.13L83.02-3.13L83.02-3.13Q80.09-3.13 77.37-3.08L77.37-3.08L77.37-3.08Q74.64-3.03 71.71-2.93L71.71-2.93L71.71-2.93Q70.80-9.49 69.74-16.72L69.74-16.72L69.74-16.72Q68.68-23.94 67.77-30.50L67.77-30.50L65.95-28.38L65.95-28.38Q65.25-25.35 64.39-20.91L64.39-20.91L64.39-20.91Q63.53-16.46 62.72-12.32L62.72-12.32L62.72-12.32Q61.81-7.47 60.80-2.32L60.80-2.32Z" fill="#000000"></path>
    </g>
  </g>
  <style>
    text {
      font-size: 64px;
      font-family: Arial Black;
      dominant-baseline: central;
      text-anchor: middle;
    }
  </style>
</svg>